<?xml version="1.0" encoding="UTF-8"?>
<!DOCTYPE svg PUBLIC "-//W3C//DTD SVG 1.1//EN" "http://www.w3.org/Graphics/SVG/1.1/DTD/svg11.dtd">
<svg xmlns="http://www.w3.org/2000/svg" version="1.1" width="460px" height="460px" style="shape-rendering:geometricPrecision; text-rendering:geometricPrecision; image-rendering:optimizeQuality; fill-rule:evenodd; clip-rule:evenodd" xmlns:xlink="http://www.w3.org/1999/xlink">
<g><path style="opacity:1" fill="#fffefe" d="M -0.5,-0.5 C 152.833,-0.5 306.167,-0.5 459.5,-0.5C 459.5,152.833 459.5,306.167 459.5,459.5C 306.167,459.5 152.833,459.5 -0.5,459.5C -0.5,306.167 -0.5,152.833 -0.5,-0.5 Z"/></g>
<g><path style="opacity:1" fill="#fdc431" d="M 326.5,212.5 C 309.506,196.173 292.506,179.84 275.5,163.5C 267.462,152.476 256.462,146.643 242.5,146C 224.846,143.213 208.18,145.879 192.5,154C 184.641,161.213 179.474,170.046 177,180.5C 174.183,198.496 175.516,216.163 181,233.5C 182.918,237.004 185.084,240.337 187.5,243.5C 202.107,257.44 216.44,271.773 230.5,286.5C 241.521,297.854 252.521,309.187 263.5,320.5C 252.167,332.167 240.833,343.833 229.5,355.5C 228.833,337.833 228.167,320.167 227.5,302.5C 204.01,303.298 182.01,297.798 161.5,286C 153.492,279.654 147.325,271.82 143,262.5C 137.964,250.65 134.964,238.316 134,225.5C 133.16,206.475 133.493,187.475 135,168.5C 137.96,150.411 145.794,134.911 158.5,122C 173.034,111.484 189.368,105.484 207.5,104C 224.86,103.159 242.194,103.493 259.5,105C 275.11,107.251 289.11,113.084 301.5,122.5C 314.923,136.354 322.756,153.02 325,172.5C 326.055,185.814 326.555,199.147 326.5,212.5 Z"/></g>
<g><path style="opacity:1" fill="#fefdfd" d="M 275.5,163.5 C 276.504,164.683 277.338,166.016 278,167.5C 283.234,183.412 284.901,199.745 283,216.5C 280.75,237.205 269.583,250.038 249.5,255C 243.204,256.012 236.871,256.512 230.5,256.5C 230.5,266.5 230.5,276.5 230.5,286.5C 216.44,271.773 202.107,257.44 187.5,243.5C 185.084,240.337 182.918,237.004 181,233.5C 175.516,216.163 174.183,198.496 177,180.5C 179.474,170.046 184.641,161.213 192.5,154C 208.18,145.879 224.846,143.213 242.5,146C 256.462,146.643 267.462,152.476 275.5,163.5 Z"/></g>
<g><path style="opacity:1" fill="#e5ac2e" d="M 275.5,163.5 C 292.506,179.84 309.506,196.173 326.5,212.5C 326.425,235.21 320.591,256.21 309,275.5C 293.965,290.702 278.799,305.702 263.5,320.5C 252.521,309.187 241.521,297.854 230.5,286.5C 230.5,276.5 230.5,266.5 230.5,256.5C 236.871,256.512 243.204,256.012 249.5,255C 269.583,250.038 280.75,237.205 283,216.5C 284.901,199.745 283.234,183.412 278,167.5C 277.338,166.016 276.504,164.683 275.5,163.5 Z"/></g>
<g><path style="opacity:1" fill="#262223" d="M 195.5,187.5 C 206.354,187.518 210.854,192.851 209,203.5C 207.833,206 206,207.833 203.5,209C 195.797,211.564 190.63,209.064 188,201.5C 187.252,195.084 189.752,190.417 195.5,187.5 Z"/></g>
<g><path style="opacity:1" fill="#262223" d="M 226.5,187.5 C 237.375,187.537 241.875,192.871 240,203.5C 238.833,206 237,207.833 234.5,209C 226.797,211.564 221.63,209.064 219,201.5C 218.245,198.697 218.578,196.03 220,193.5C 222.063,191.266 224.229,189.266 226.5,187.5 Z"/></g>
<g><path style="opacity:1" fill="#272324" d="M 256.5,187.5 C 263.663,186.331 268.829,188.998 272,195.5C 272.461,206.37 267.294,210.87 256.5,209C 251.242,205.984 249.075,201.484 250,195.5C 252.001,192.669 254.167,190.003 256.5,187.5 Z"/></g>
<g><path style="opacity:1" fill="#fee197" d="M 227.5,302.5 C 228.167,320.167 228.833,337.833 229.5,355.5C 229.44,356.043 229.107,356.376 228.5,356.5C 227.5,338.512 227.167,320.512 227.5,302.5 Z"/></g>
</svg>
